<svg width="40" height="40" viewBox="0 0 40 40" fill="none" xmlns="http://www.w3.org/2000/svg">
<path fill-rule="evenodd" clip-rule="evenodd" d="M20 40C31.0457 40 40 31.0457 40 20C40 8.9543 31.0457 0 20 0C8.9543 0 0 8.9543 0 20C0 31.0457 8.9543 40 20 40Z" fill="#FFC59E"/>
<path d="M24.4287 20C24.4287 19.7849 24.3447 19.5699 24.177 19.4059L18.8967 14.2462C18.5609 13.9179 18.0163 13.9179 17.6805 14.2462C17.3448 14.5743 17.3448 15.1063 17.6805 15.4346L22.3528 20L17.6807 24.5654C17.3449 24.8936 17.3449 25.4256 17.6807 25.7537C18.0164 26.0821 18.561 26.0821 18.8969 25.7537L24.1771 20.594C24.3449 20.43 24.4287 20.215 24.4287 20Z" fill="white" stroke="white"/>
</svg>
