<svg width="40" height="40" viewBox="0 0 40 40" fill="none" xmlns="http://www.w3.org/2000/svg">
<path fill-rule="evenodd" clip-rule="evenodd" d="M20 40C8.9543 40 0 31.0457 0 20C0 8.9543 8.9543 0 20 0C31.0457 0 40 8.9543 40 20C40 31.0457 31.0457 40 20 40Z" fill="#FFC59E"/>
<path d="M15.5713 20C15.5713 19.7849 15.6553 19.5699 15.823 19.4059L21.1033 14.2462C21.4391 13.9179 21.9837 13.9179 22.3195 14.2462C22.6552 14.5743 22.6552 15.1063 22.3195 15.4346L17.6472 20L22.3193 24.5654C22.6551 24.8936 22.6551 25.4256 22.3193 25.7537C21.9836 26.0821 21.439 26.0821 21.1031 25.7537L15.8229 20.594C15.6551 20.43 15.5713 20.215 15.5713 20Z" fill="white" stroke="white"/>
</svg>
