<svg width="118" height="118" viewBox="0 0 118 118" fill="none" xmlns="http://www.w3.org/2000/svg">
<g filter="url(#filter0_d_302_1608)">
<path d="M114 22.7734V3.22266C114 1.44289 112.557 0 110.777 0C98.8148 0 86.5784 3.45598 76.0558 9.77024C75.9772 9.7335 75.8985 9.69697 75.8169 9.66668C70.4411 7.67164 64.7829 6.66016 59 6.66016C53.0695 6.66016 47.303 7.72385 41.9152 9.75562C31.4029 3.45619 19.1506 0 7.22266 0C5.44289 0 4 1.44289 4 3.22266V22.7734C4 29.5653 7.30537 36.1743 12.8567 40.5258C11.4121 45.1501 10.6602 50.0169 10.6602 55C10.6602 67.5204 15.5483 79.7251 24.1062 88.6662C26.2767 97.7195 34.1553 103.555 42.8867 103.555C43.9158 103.555 44.9318 103.471 45.9291 103.315C48.929 107.49 53.7387 110 59 110C64.2613 110 69.071 107.49 72.0709 103.315C73.0682 103.471 74.0842 103.555 75.1133 103.555C83.9156 103.555 91.708 97.6731 93.8883 88.672C102.449 79.7302 107.34 67.523 107.34 55C107.34 51.4613 106.959 47.9699 106.208 44.5607C112.365 39.7237 114 28.2208 114 22.7734ZM10.4453 22.7734V6.5377C18.76 7.01207 27.1473 9.30252 34.7575 13.159C26.5865 17.9113 19.6516 25.1859 15.3588 34.1571C12.2513 31.0905 10.4453 26.9704 10.4453 22.7734ZM59 103.555C56.5246 103.555 54.2171 102.626 52.467 101.018C55.0542 99.5371 57.3017 97.4705 59 94.8941C60.6966 97.4682 62.9439 99.5358 65.533 101.018C63.7828 102.626 61.4754 103.555 59 103.555ZM55.9819 73.2057C56.4408 71.9845 57.6205 71.1133 59 71.1133C60.3795 71.1133 61.5592 71.9845 62.0181 73.2057L59 76.2238L55.9819 73.2057ZM87.6247 87.1656C86.1395 93.3234 80.8591 97.1094 75.1133 97.1094C67.2135 97.1094 61.1418 90.1132 62.3804 81.9584L67.7242 76.6146C68.3285 76.0102 68.668 75.1906 68.668 74.3359C68.668 69.005 64.3309 64.668 59 64.668C53.6691 64.668 49.332 69.005 49.332 74.3359C49.332 75.1906 49.6715 76.0102 50.2761 76.6146L55.6201 81.9586C56.8617 90.1366 50.7633 97.1094 42.8867 97.1094C35.6699 97.1094 29.9961 91.2796 29.9961 84.0039C29.9961 80.5608 31.3369 77.3236 33.7715 74.8887C35.0301 73.6302 35.0301 71.5898 33.7715 70.3312C32.5132 69.0729 30.4726 69.0729 29.2141 70.3312C26.8607 72.6846 25.1935 75.5393 24.3019 78.6528C19.6709 71.7413 17.1055 63.456 17.1055 55C17.1055 41.563 23.4655 29.5848 33.332 21.9132L87.8539 85.9794C87.7027 86.3595 87.6256 86.7623 87.6247 87.1656ZM100.235 62.4149L86.7462 46.4731C85.5966 45.1146 83.5633 44.9447 82.2042 46.0945C80.8457 47.2444 80.6762 49.2776 81.8256 50.6363L98.166 69.9482C96.6821 73.9 94.62 77.6213 92.0408 80.9546L38.7503 18.3354C42.4489 16.2847 46.4875 14.7767 50.7597 13.9212L81.8256 50.6363C82.9763 51.9961 85.0101 52.1636 86.3677 51.0149C87.7261 49.8652 87.8956 47.832 86.7462 46.4731L58.5179 13.1117C63.5192 13.0546 68.3438 13.86 72.9245 15.4741C73.963 16.5127 97.4873 40.0372 98.5259 41.0758C100.098 45.537 100.895 50.2178 100.895 55C100.895 57.4969 100.67 59.9786 100.235 62.4149ZM103.963 37.478C103.852 37.3173 103.73 37.1643 103.591 37.0255L80.9476 14.3823C89.1492 9.7827 98.3809 7.05826 107.555 6.53727V22.7734C107.555 27.6803 106.219 33.9131 103.963 37.478Z" fill="black"/>
<path d="M39.6641 45.332C34.3331 45.332 29.9961 49.6691 29.9961 55C29.9961 60.3309 34.3331 64.668 39.6641 64.668C44.995 64.668 49.332 60.3309 49.332 55C49.332 49.6691 44.995 45.332 39.6641 45.332ZM39.6641 58.2227C37.8871 58.2227 36.4414 56.777 36.4414 55C36.4414 53.223 37.8871 51.7773 39.6641 51.7773C41.441 51.7773 42.8867 53.223 42.8867 55C42.8867 56.777 41.441 58.2227 39.6641 58.2227Z" fill="black"/>
</g>
<defs>
<filter id="filter0_d_302_1608" x="0" y="0" width="118" height="118" filterUnits="userSpaceOnUse" color-interpolation-filters="sRGB">
<feFlood flood-opacity="0" result="BackgroundImageFix"/>
<feColorMatrix in="SourceAlpha" type="matrix" values="0 0 0 0 0 0 0 0 0 0 0 0 0 0 0 0 0 0 127 0" result="hardAlpha"/>
<feOffset dy="4"/>
<feGaussianBlur stdDeviation="2"/>
<feComposite in2="hardAlpha" operator="out"/>
<feColorMatrix type="matrix" values="0 0 0 0 0 0 0 0 0 0 0 0 0 0 0 0 0 0 0.25 0"/>
<feBlend mode="normal" in2="BackgroundImageFix" result="effect1_dropShadow_302_1608"/>
<feBlend mode="normal" in="SourceGraphic" in2="effect1_dropShadow_302_1608" result="shape"/>
</filter>
</defs>
</svg>
