<svg width="118" height="94" viewBox="0 0 118 94" fill="none" xmlns="http://www.w3.org/2000/svg">
<path d="M77.5003 34.4483C77.8612 34.3268 78.3191 33.7343 78.3428 33.3585C78.8722 24.2944 71.3876 12.211 68.6923 8.17676C66.5224 9.04168 64.411 10.4397 62.4618 12.5701C62.4618 12.5701 58.569 15.1825 57.188 27.8753C64.4689 37.3046 73.516 35.7627 77.5003 34.4483Z" fill="white"/>
<path d="M106.375 18.3596L94.4475 15.4481C94.4475 15.4481 94.1074 12.5703 90.725 11.3878C88.2597 10.5238 79.765 5.64155 71.4071 7.36594C74.567 12.1757 81.5964 24.0316 81.0406 33.5145C80.9579 35.0055 79.7726 36.5459 78.3476 37.0169C76.9778 37.4727 74.5194 38.1036 71.5316 38.1036C67.2028 38.1036 61.7657 36.7723 56.8674 31.654C56.7713 33.2805 56.7165 35.0397 56.7068 36.9432C56.6519 46.7613 44.1806 56.0703 44.1806 56.0703L42.5195 59.5127C45.9098 66.8533 51.2245 73.1274 57.8226 77.6808C58.1217 72.9917 59.2976 69.3183 60.6595 66.5578C63.2388 61.3146 66.8561 58.4047 68.702 57.1734C69.099 46.3519 72.6114 43.1892 75.5416 42.4661C76.4417 42.2431 77.3906 42.4352 78.137 42.9955C78.9865 43.6295 79.5329 44.676 79.5883 45.7994C79.739 48.7081 81.4582 50.7501 82.2734 51.5611C83.5953 51.6841 84.8573 51.8936 86.0452 52.1815L86.1543 51.1611L87.0623 42.3446C87.2162 40.8566 88.5536 39.6022 90.0341 39.3901C95.6557 38.5712 108.181 35.2413 108.995 21.7095C109.089 20.217 107.828 18.716 106.375 18.3596ZM87.7917 21.5029C86.9502 21.5029 86.2668 20.8225 86.2668 19.98C86.2668 19.1375 86.9502 18.4572 87.7917 18.4572C88.6352 18.4572 89.3152 19.1375 89.3152 19.98C89.3122 20.821 88.6336 21.5029 87.7917 21.5029Z" fill="white"/>
<path d="M94.4507 61.7925C93.9998 57.9561 88.5845 54.7949 81.5869 54.3458C81.5869 54.3458 77.8715 51.4895 77.622 46.5591C77.5811 45.8127 77.0232 45.0708 76.2986 45.2496C74.4288 45.7096 71.254 48.1101 71.0958 59.0735C71.0958 59.0735 60.9258 64.2042 60.1909 78.996C66.7099 82.9127 74.3066 85.2102 82.4152 85.3438L82.3243 83.2248C82.2906 82.4784 82.8322 81.6599 83.5307 81.3983L92.1932 78.1496C92.1932 78.1496 96.2557 78.3775 97.9455 75.3275C98.8011 73.7901 99.5951 72.7158 100.18 72.0236C100.658 71.4542 100.651 70.6402 100.115 70.1198C98.3456 68.4115 94.7877 64.6594 94.4507 61.7925ZM89.3121 65.5058C88.472 65.5058 87.7902 64.8273 87.7902 63.9842C87.7902 63.1393 88.472 62.4592 89.3121 62.4592C90.1552 62.4592 90.8371 63.1393 90.8371 63.9842C90.8374 64.827 90.1555 65.5058 89.3121 65.5058Z" fill="white"/>
<path d="M9 24.287C9 26.8523 11.0796 28.9319 13.6448 28.9319H20.7669V35.7443C20.7669 38.5234 23.0198 40.7762 25.7988 40.7762C28.5779 40.7762 30.8308 38.5234 30.8308 35.7443V28.9319H37.9529C40.5181 28.9319 42.5977 26.8523 42.5977 24.287C42.5977 21.7218 40.5181 19.6422 37.9529 19.6422H30.8308V12.8298C30.8308 10.0507 28.5779 7.79785 25.7988 7.79785C23.0198 7.79785 20.7669 10.0507 20.7669 12.8298V19.6422H13.6448C11.0796 19.6422 9 21.7218 9 24.287Z" fill="white"/>
</svg>
