<svg width="20" height="22" viewBox="0 0 20 22" fill="none" xmlns="http://www.w3.org/2000/svg">
<path d="M1.42856 0H13.5664L20 6.16827V20.625C20 21.3847 19.36 22 18.5714 22H1.42856C0.639966 22 0 21.3847 0 20.625V1.37499C0 0.615326 0.64004 0 1.42856 0Z" fill="#E2574C"/>
<path d="M19.9792 6.18839H14.9999C14.2113 6.18839 13.5713 5.57243 13.5713 4.81341V0.0146484L19.9792 6.18839Z" fill="#B53629"/>
<path d="M14.6411 10.4251C14.8805 10.4251 14.9976 10.2244 14.9976 10.0298C14.9976 9.82835 14.8754 9.63379 14.6411 9.63379H13.2783C13.0118 9.63379 12.8633 9.8462 12.8633 10.0807V13.3043C12.8633 13.5917 13.0333 13.7512 13.2633 13.7512C13.4919 13.7512 13.6626 13.5917 13.6626 13.3043V12.4195H14.4869C14.7426 12.4195 14.8705 12.2181 14.8705 12.0181C14.8705 11.8221 14.7426 11.6275 14.4869 11.6275H13.6626V10.4251H14.6411ZM10.0347 9.63379H9.03754C8.76681 9.63379 8.57465 9.81255 8.57465 10.0779V13.3071C8.57465 13.6364 8.85107 13.7395 9.04892 13.7395H10.0954C11.3339 13.7395 12.1518 12.9551 12.1518 11.7444C12.1511 10.4643 11.3811 9.63379 10.0347 9.63379ZM10.0826 12.9435H9.4747V10.4299H10.0226C10.8519 10.4299 11.2126 10.9655 11.2126 11.7046C11.2126 12.3962 10.8583 12.9435 10.0826 12.9435ZM6.42971 9.63379H5.44186C5.16256 9.63379 5.00684 9.81113 5.00684 10.0807V13.3043C5.00684 13.5917 5.1854 13.7512 5.42537 13.7512C5.66535 13.7512 5.84391 13.5917 5.84391 13.3043V12.3631H6.46319C7.22746 12.3631 7.85819 11.842 7.85819 11.0039C7.85827 10.1838 7.24971 9.63379 6.42971 9.63379ZM6.4133 11.607H5.84399V10.3907H6.4133C6.76473 10.3907 6.9883 10.6547 6.9883 10.9992C6.98756 11.343 6.76473 11.607 6.4133 11.607Z" fill="white"/>
</svg>
