<svg width="60" height="60" viewBox="0 0 60 60" fill="none" xmlns="http://www.w3.org/2000/svg">
<g filter="url(#filter0_d_301_1685)">
<path fill-rule="evenodd" clip-rule="evenodd" d="M50 28C50 39.0457 41.0457 48 30 48C18.9543 48 10 39.0457 10 28C10 16.9543 18.9543 8 30 8C41.0457 8 50 16.9543 50 28Z" fill="#FFC59E"/>
</g>
<path d="M30 33.4287C29.7849 33.4287 29.5699 33.3447 29.4059 33.177L24.2462 27.8967C23.9179 27.5609 23.9179 27.0163 24.2462 26.6805C24.5743 26.3448 25.1063 26.3448 25.4346 26.6805L30 31.3528L34.5654 26.6807C34.8936 26.3449 35.4256 26.3449 35.7537 26.6807C36.0821 27.0164 36.0821 27.561 35.7537 27.8969L30.594 33.1771C30.43 33.3449 30.215 33.4287 30 33.4287Z" fill="white" stroke="white"/>
<defs>
<filter id="filter0_d_301_1685" x="0" y="0" width="60" height="60" filterUnits="userSpaceOnUse" color-interpolation-filters="sRGB">
<feFlood flood-opacity="0" result="BackgroundImageFix"/>
<feColorMatrix in="SourceAlpha" type="matrix" values="0 0 0 0 0 0 0 0 0 0 0 0 0 0 0 0 0 0 127 0" result="hardAlpha"/>
<feOffset dy="2"/>
<feGaussianBlur stdDeviation="5"/>
<feColorMatrix type="matrix" values="0 0 0 0 0.607843 0 0 0 0 0.321569 0 0 0 0 0.196078 0 0 0 0.5 0"/>
<feBlend mode="normal" in2="BackgroundImageFix" result="effect1_dropShadow_301_1685"/>
<feBlend mode="normal" in="SourceGraphic" in2="effect1_dropShadow_301_1685" result="shape"/>
</filter>
</defs>
</svg>
